<?xml version="1.0" encoding="UTF-8"?>
<svg version="1.1" xmlns="http://www.w3.org/2000/svg" width="180" height="100">
<path d="M0 0 C0.86625 0.556875 1.7325 1.11375 2.625 1.6875 C3.40875 2.120625 4.1925 2.55375 5 3 C7.03412421 2.07137808 9.03247172 1.06246527 11 0 C16.23955679 -0.56138108 19.56777353 0.14367628 24 3 C27.82965008 6.72614602 28.58649697 9.72783638 29 15 C26 16 26 16 22.5625 14.8125 C19.27928704 13.14209341 17.25007492 11.8800959 15 9 C15 8.01 15 7.02 15 6 C13.02 6.33 11.04 6.66 9 7 C9.495 7.99 9.495 7.99 10 9 C10.07033769 10.87379605 10.0843022 12.75001102 10.0625 14.625 C10.05347656 15.62789062 10.04445312 16.63078125 10.03515625 17.6640625 C10.02355469 18.43492188 10.01195312 19.20578125 10 20 C11.65 20.33 13.3 20.66 15 21 C15.33 20.34 15.66 19.68 16 19 C21.94 19 27.88 19 34 19 C34 21.31 34 23.62 34 26 C30.7 26 27.4 26 24 26 C24 26.99 24 27.98 24 29 C23.34 29 22.68 29 22 29 C22 30.32 22 31.64 22 33 C21.34 33 20.68 33 20 33 C20 31.68 20 30.36 20 29 C19.78601563 29.64453125 19.57203125 30.2890625 19.3515625 30.953125 C18 33 18 33 15.3984375 33.609375 C14.40070313 33.65578125 13.40296875 33.7021875 12.375 33.75 C11.37210938 33.80671875 10.36921875 33.8634375 9.3359375 33.921875 C8.56507812 33.94765625 7.79421875 33.9734375 7 34 C6.505 30.535 6.505 30.535 6 27 C5.67 27 5.34 27 5 27 C5 30.3 5 33.6 5 37 C3.35 37 1.7 37 0 37 C0 34.36 0 31.72 0 29 C-1.17357056 29.05329468 -1.17357056 29.05329468 -2.37084961 29.10766602 C-5.89285206 29.26462454 -9.41514519 29.41366811 -12.9375 29.5625 C-14.78504883 29.64661133 -14.78504883 29.64661133 -16.66992188 29.73242188 C-17.83974609 29.78076172 -19.00957031 29.82910156 -20.21484375 29.87890625 C-21.29886475 29.9260376 -22.38288574 29.97316895 -23.49975586 30.02172852 C-26 30 -26 30 -27 29 C-27.04063832 27.33382885 -27.042721 25.66611905 -27 24 C-24.69 24 -22.38 24 -20 24 C-20 22.02 -20 20.04 -20 18 C-19.01 18.33 -18.02 18.66 -17 19 C-16.34 18.67 -15.68 18.34 -15 18 C-13.12620395 17.92966231 -11.24998898 17.9156978 -9.375 17.9375 C-7.87066406 17.95103516 -7.87066406 17.95103516 -6.3359375 17.96484375 C-5.56507812 17.97644531 -4.79421875 17.98804687 -4 18 C-4 19.32 -4 20.64 -4 22 C-3.34 22 -2.68 22 -2 22 C-2 20.68 -2 19.36 -2 18 C-1.34 18 -0.68 18 0 18 C-0.020625 16.9275 -0.04125 15.855 -0.0625 14.75 C-0.0142016 11.85209576 0.13155885 9.71387859 1 7 C-1.475 6.505 -1.475 6.505 -4 6 C-4.33 6.9075 -4.66 7.815 -5 8.75 C-7.50934788 12.8276903 -10.38739997 14.71626295 -15 16 C-17.25390625 15.59765625 -17.25390625 15.59765625 -19 15 C-18.52301595 9.99166746 -17.20153104 6.89375397 -14 3 C-9.23310522 -0.25015553 -5.58799317 -0.53218983 0 0 Z M5 14 C6 16 6 16 6 16 Z M-12 20 C-11 22 -11 22 -11 22 Z M-8 20 C-7 22 -7 22 -7 22 Z M-17 22 C-17.33 22.66 -17.66 23.32 -18 24 C-17.34 24 -16.68 24 -16 24 C-16.33 23.34 -16.66 22.68 -17 22 Z " fill="#02A859" transform="translate(84,51)"/>
<path d="M0 0 C5.94 0 11.88 0 18 0 C18 2.31 18 4.62 18 7 C14.7 7 11.4 7 8 7 C8 7.99 8 8.98 8 10 C7.34 10 6.68 10 6 10 C6 11.32 6 12.64 6 14 C5.34 14 4.68 14 4 14 C4 12.68 4 11.36 4 10 C3.78601563 10.64453125 3.57203125 11.2890625 3.3515625 11.953125 C2 14 2 14 -0.6015625 14.609375 C-1.59929687 14.65578125 -2.59703125 14.7021875 -3.625 14.75 C-4.62789063 14.80671875 -5.63078125 14.8634375 -6.6640625 14.921875 C-7.82035156 14.96054688 -7.82035156 14.96054688 -9 15 C-9.38063221 12.6739143 -9.71269945 10.33944736 -10 8 C-9 7 -9 7 -6.93359375 6.90234375 C-5.69802734 6.91974609 -5.69802734 6.91974609 -4.4375 6.9375 C-3.61121094 6.94652344 -2.78492187 6.95554687 -1.93359375 6.96484375 C-1.29550781 6.97644531 -0.65742187 6.98804687 0 7 C0 4.69 0 2.38 0 0 Z " fill="#D1E18C" transform="translate(100,70)"/>
<path d="M0 0 C2.625 -0.1875 2.625 -0.1875 5 0 C5.66 1.32 6.32 2.64 7 4 C6.01 5.32 5.02 6.64 4 8 C5.98 9.32 7.96 10.64 10 12 C9.02822441 14.46012661 8.40523853 15.75198057 6.1171875 17.15234375 C0.95224137 18.96097471 -2.27134338 19.22315148 -7.37109375 17.15234375 C-9 16 -9 16 -11 12 C-7.7 10.35 -4.4 8.7 -1 7 C-1.33 5.68 -1.66 4.36 -2 3 C-1.34 2.01 -0.68 1.02 0 0 Z M-3 13 C-3 13.33 -3 13.66 -3 14 C-1.35 14 0.3 14 2 14 C2 13.67 2 13.34 2 13 C0.35 13 -1.3 13 -3 13 Z " fill="#D0E08C" transform="translate(113,29)"/>
<path d="M0 0 C0.99 0.33 1.98 0.66 3 1 C3.66 0.67 4.32 0.34 5 0 C6.87379605 -0.07033769 8.75001102 -0.0843022 10.625 -0.0625 C12.12933594 -0.04896484 12.12933594 -0.04896484 13.6640625 -0.03515625 C14.43492188 -0.02355469 15.20578125 -0.01195313 16 0 C16 1.32 16 2.64 16 4 C16.66 4 17.32 4 18 4 C18 2.68 18 1.36 18 0 C18.66 0 19.32 0 20 0 C20 1.65 20 3.3 20 5 C13.375 7 13.375 7 10 7 C10 8.32 10 9.64 10 11 C7.35448944 11.19386492 4.70882217 11.38038267 2.0625 11.5625 C1.30775391 11.61857422 0.55300781 11.67464844 -0.22460938 11.73242188 C-2.14745958 11.86176157 -4.07389548 11.93516912 -6 12 C-7 11 -7 11 -7.0625 8.4375 C-7.041875 7.633125 -7.02125 6.82875 -7 6 C-4.69 6 -2.38 6 0 6 C0 4.02 0 2.04 0 0 Z M8 2 C9 4 9 4 9 4 Z M12 2 C13 4 13 4 13 4 Z M3 4 C2.67 4.66 2.34 5.32 2 6 C2.66 6 3.32 6 4 6 C3.67 5.34 3.34 4.68 3 4 Z " fill="#ABAFAB" transform="translate(64,69)"/>
<path d="M0 0 C0.845625 0.495 1.69125 0.99 2.5625 1.5 C2.5625 2.82 2.5625 4.14 2.5625 5.5 C-0.44565066 8.50815066 -3.22523699 8.69447873 -7.3125 8.8125 C-11.11021791 8.79584334 -12.24884848 8.62073697 -15.5625 6.5 C-16.18125 5.84 -16.8 5.18 -17.4375 4.5 C-16.4375 1.5 -16.4375 1.5 -13.8125 -0.1875 C-8.64163965 -2.19839014 -5.09604232 -2.22372756 0 0 Z " fill="#D0E08C" transform="translate(74.4375,39.5)"/>
<path d="M0 0 C5.88079671 0.28686813 9.14732542 2.80261243 13 7 C14.62080625 9.83641094 15.1452007 11.10459567 14.625 14.3125 C14.41875 14.869375 14.2125 15.42625 14 16 C9.61165213 15.48972699 6.49558954 14.75967595 3 12 C0.53699805 8.85109877 -1.10047776 6.18061363 -0.75 2.0625 C-0.5025 1.381875 -0.255 0.70125 0 0 Z " fill="#D0DF8C" transform="translate(67,19)"/>
<path d="M0 0 C0.35957762 3.77556505 0.11727831 5.76995408 -1.625 9.1875 C-5.33325551 13.57885521 -9.39125853 15.17518508 -15 16 C-16.43088528 13.13822943 -15.59991697 11.06624227 -15 8 C-14.34 8 -13.68 8 -13 8 C-12.773125 7.4225 -12.54625 6.845 -12.3125 6.25 C-9.26862824 1.03193413 -5.93123904 -0.55174317 0 0 Z " fill="#D1E08C" transform="translate(113,19)"/>
<path d="M0 0 C1.8125 0.0625 1.8125 0.0625 4 1 C6.66318781 5.49986906 7.53595197 8.95857112 6.66015625 14.1328125 C5.57159319 17.21170683 3.47007925 18.97326831 1 21 C-2.80232031 16.48474463 -3.56193852 13.23760958 -3.33984375 7.34765625 C-2.90812143 4.36529864 -1.87550998 2.34438748 0 0 Z M1 7 C1 8.98 1 10.96 1 13 C1.33 13 1.66 13 2 13 C2 11.02 2 9.04 2 7 C1.67 7 1.34 7 1 7 Z " fill="#D1E08C" transform="translate(88,10)"/>
<path d="M0 0 C1.48831242 0.00667405 2.97660807 0.01863442 4.46484375 0.03515625 C5.22345703 0.03966797 5.98207031 0.04417969 6.76367188 0.04882812 C8.64326246 0.06064945 10.52281274 0.07858547 12.40234375 0.09765625 C12.73234375 1.08765625 13.06234375 2.07765625 13.40234375 3.09765625 C12.74234375 3.09765625 12.08234375 3.09765625 11.40234375 3.09765625 C11.40234375 4.41765625 11.40234375 5.73765625 11.40234375 7.09765625 C10.74234375 7.09765625 10.08234375 7.09765625 9.40234375 7.09765625 C9.40234375 5.77765625 9.40234375 4.45765625 9.40234375 3.09765625 C9.18835938 3.7421875 8.974375 4.38671875 8.75390625 5.05078125 C7.40234375 7.09765625 7.40234375 7.09765625 4.80078125 7.70703125 C3.80304688 7.7534375 2.8053125 7.79984375 1.77734375 7.84765625 C0.77445312 7.904375 -0.2284375 7.96109375 -1.26171875 8.01953125 C-2.03257813 8.0453125 -2.8034375 8.07109375 -3.59765625 8.09765625 C-3.97828846 5.77157055 -4.3103557 3.43710361 -4.59765625 1.09765625 C-3.59765625 0.09765625 -3.59765625 0.09765625 0 0 Z " fill="#AEB2A9" transform="translate(94.59765625,76.90234375)"/>
<path d="M0 0 C2.45840605 -0.02691685 4.91651882 -0.04679802 7.375 -0.0625 C8.07367188 -0.07087891 8.77234375 -0.07925781 9.4921875 -0.08789062 C14.7734375 -0.11328125 14.7734375 -0.11328125 17 1 C17 2.32 17 3.64 17 5 C14.35448944 5.19386492 11.70882217 5.38038267 9.0625 5.5625 C8.30775391 5.61857422 7.55300781 5.67464844 6.77539062 5.73242188 C4.85254042 5.86176157 2.92610452 5.93516912 1 6 C0 5 0 5 -0.0625 2.4375 C-0.041875 1.633125 -0.02125 0.82875 0 0 Z " fill="#CFDE8D" transform="translate(57,75)"/>
<path d="M0 0 C2.13745922 0.25146579 3.45925779 0.45925779 5 2 C5.125 4.5 5.125 4.5 5 7 C4 8 4 8 1.4375 8.0625 C0.633125 8.041875 -0.17125 8.02125 -1 8 C-1.66 6.35 -2.32 4.7 -3 3 C-1.75 1.4375 -1.75 1.4375 0 0 Z " fill="#08AA5B" transform="translate(114,49)"/>
<path d="M0 0 C2.625 0.9375 2.625 0.9375 5 2 C4.67 3.98 4.34 5.96 4 8 C1.625 8.125 1.625 8.125 -1 8 C-1.66 7.34 -2.32 6.68 -3 6 C-2.75 3.4375 -2.75 3.4375 -2 1 C-1.34 0.67 -0.68 0.34 0 0 Z " fill="#04A95A" transform="translate(63,49)"/>
<path d="M0 0 C2.625 -0.1875 2.625 -0.1875 5 0 C5.66 1.32 6.32 2.64 7 4 C6.01 5.32 5.02 6.64 4 8 C2.35 7.67 0.7 7.34 -1 7 C-1.625 5.1875 -1.625 5.1875 -2 3 C-1.34 2.01 -0.68 1.02 0 0 Z " fill="#08AA5B" transform="translate(113,29)"/>
<path d="M0 0 C2.5 0.125 2.5 0.125 3.5 1.125 C3.54063832 2.79117115 3.542721 4.45888095 3.5 6.125 C1.85 6.785 0.2 7.445 -1.5 8.125 C-3.0625 6.875 -3.0625 6.875 -4.5 5.125 C-4.08147866 1.5675686 -3.71072057 0.18553603 0 0 Z " fill="#00A859" transform="translate(63.5,28.875)"/>
<path d="M0 0 C2.5 0.125 2.5 0.125 3.5 1.125 C3.54063832 2.79117115 3.542721 4.45888095 3.5 6.125 C1.85 6.785 0.2 7.445 -1.5 8.125 C-3.0625 6.875 -3.0625 6.875 -4.5 5.125 C-4.08147866 1.5675686 -3.71072057 0.18553603 0 0 Z " fill="#04A95A" transform="translate(100.5,12.875)"/>
<path d="M0 0 C2.5625 0.1875 2.5625 0.1875 4.5625 2.1875 C4.1875 4.8125 4.1875 4.8125 3.5625 7.1875 C1.75 7.8125 1.75 7.8125 -0.4375 8.1875 C-1.4275 7.5275 -2.4175 6.8675 -3.4375 6.1875 C-3.6875 3.625 -3.6875 3.625 -3.4375 1.1875 C-2.4375 0.1875 -2.4375 0.1875 0 0 Z " fill="#04A95A" transform="translate(78.4375,12.8125)"/>
<path d="M0 0 C5.61 0 11.22 0 17 0 C17 0.99 17 1.98 17 3 C11.72 3 6.44 3 1 3 C0.67 2.01 0.34 1.02 0 0 Z " fill="#90ABA0" transform="translate(100,70)"/>
<path d="M0 0 C2.31 0 4.62 0 7 0 C7 0.99 7 1.98 7 3 C5.02 3 3.04 3 1 3 C0.67 2.01 0.34 1.02 0 0 Z " fill="#ABAEAC" transform="translate(100,70)"/>
</svg>
